<svg fill="#ffffff" viewBox="0 0 16 16" id="trash-16px" xmlns="http://www.w3.org/2000/svg"><g id="SVGRepo_bgCarrier" stroke-width="0"></g><g id="SVGRepo_tracerCarrier" stroke-linecap="round" stroke-linejoin="round"></g><g id="SVGRepo_iconCarrier"> <path id="Path_23" data-name="Path 23" d="M-250.5-236H-255v-1.5a1.5,1.5,0,0,0-1.5-1.5h-3a1.5,1.5,0,0,0-1.5,1.5v1.5h-4.5a.5.5,0,0,0-.5.5.5.5,0,0,0,.5.5h1.5v10.5a1.5,1.5,0,0,0,1.5,1.5h9a1.5,1.5,0,0,0,1.5-1.5V-235h1.5a.5.5,0,0,0,.5-.5A.5.5,0,0,0-250.5-236Zm-9.5-1.5a.5.5,0,0,1,.5-.5h3a.5.5,0,0,1,.5.5v1.5h-4Zm7,13a.5.5,0,0,1-.5.5h-9a.5.5,0,0,1-.5-.5V-235h10Zm-7-9v8a.5.5,0,0,1-.5.5.5.5,0,0,1-.5-.5v-8a.5.5,0,0,1,.5-.5A.5.5,0,0,1-260-233.5Zm4.5-.5a.5.5,0,0,1,.5.5v8a.5.5,0,0,1-.5.5.5.5,0,0,1-.5-.5v-8A.5.5,0,0,1-255.5-234Zm-2,.5v8a.5.5,0,0,1-.5.5.5.5,0,0,1-.5-.5v-8a.5.5,0,0,1,.5-.5A.5.5,0,0,1-257.5-233.5Z" transform="translate(266 239)"></path> </g></svg>