<?xml version="1.0" encoding="utf-8"?><!-- Uploaded to: SVG Repo, www.svgrepo.com, Generator: SVG Repo Mixer Tools -->
<svg width="800px" height="800px" viewBox="0 0 64 64" fill="none" xmlns="http://www.w3.org/2000/svg">
<path d="M37.892 10.114L10.751 37.256L7.57499 53.139C7.49124 53.5569 7.51323 53.9892 7.63897 54.3966C7.76472 54.8039 7.99023 55.1733 8.29502 55.4714C8.59982 55.7694 8.97423 55.9866 9.38427 56.1032C9.79432 56.2198 10.227 56.2321 10.643 56.139L27.143 52.45L53.681 25.906C54.2643 25.3227 54.727 24.6303 55.0427 23.8682C55.3583 23.1061 55.5208 22.2893 55.5208 21.4645C55.5208 20.6396 55.3583 19.8228 55.0427 19.0607C54.727 18.2986 54.2643 17.6062 53.681 17.023L46.772 10.114C45.5942 8.93686 43.9972 8.27563 42.332 8.27563C40.6668 8.27563 39.0698 8.93686 37.892 10.114V10.114Z" stroke="#426AB2" stroke-width="4" stroke-linecap="round" stroke-linejoin="round"/>
</svg>