<svg fill="#ffffff" version="1.1" id="Layer_1" xmlns="http://www.w3.org/2000/svg" xmlns:xlink="http://www.w3.org/1999/xlink" viewBox="0 0 260 260" enable-background="new 0 0 260 260" xml:space="preserve"><g id="SVGRepo_bgCarrier" stroke-width="0"></g><g id="SVGRepo_tracerCarrier" stroke-linecap="round" stroke-linejoin="round"></g><g id="SVGRepo_iconCarrier"> <path d="M253.53,158.485c-12.44-45.94-46.84-76.72-76.94-68.8c-11.54,3.17-29.87,10.86-43,11.54c0,0,0-14.26,0-14.93 c0-13.13-10.63-23.77-23.53-23.77H75.43c-8.37,0-14.93-6.79-14.93-15.16s6.78-15.16,14.93-15.16h49.34c4.75,0,8.6-3.85,8.6-8.6 L133.394,2h-8.641l0.017,13.005c0,8.6-0.46,8.6-8.6,8.6H75.43c-13.12,0-23.53,10.63-23.53,23.76s10.63,23.76,23.53,23.76h34.4 c8.37,0,14.94,6.79,14.94,15.17c0,0.67,0,15.16,0,15.16c-12.9-0.91-31.01-8.6-42.32-11.77c-29.88-8.15-63.82,22.86-76.04,69.02 C3.391,170.111,2,181.379,2,192c0,32,13.599,58.732,36.09,64.695c2.949,0.812,5.941,1.296,8.952,1.297 C67.067,258,87.075,243.325,101,219.585c8.83,1.81,18.33,2.94,28.07,2.94c9.95,0,19.46-1.81,28.51-3.62 c14.058,23.629,34.085,38.055,54.136,38.067c3.157,0.002,6.584-0.141,9.684-0.947C251.5,248.095,265.98,204.195,253.53,158.485z M90.35,162.335c-0.2,2.11-1.74,3.64-3.86,3.82c-0.14,0.01-0.28,0.02-0.42,0.02h-17.2v17.2c0,2.26-1.81,4.3-4.3,4.3 c-0.14,0-0.28-0.01-0.42-0.02c-1.95-0.22-3.64-1.91-3.86-3.86c-0.01-0.14-0.02-0.28-0.02-0.42v-17.2h-17.2c-2.26,0-4.3-1.81-4.3-4.3 c0-0.14,0.01-0.28,0.02-0.42c0.2-2.12,1.9-3.66,3.86-3.86c0.14-0.01,0.28-0.02,0.42-0.02h17.2v-17.2c0-0.14,0.01-0.28,0.02-0.42 c0.18-2.13,1.73-3.68,3.86-3.86c0.14-0.01,0.28-0.02,0.42-0.02c0.16,0,0.31,0.01,0.46,0.02c0.07,0.01,0.14,0.02,0.21,0.03 c0.101,0.014,0.196,0.042,0.294,0.063c-0.032-0.008-0.061-0.014-0.094-0.023c0.1,0.01,0.2,0.04,0.3,0.07 c0.27,0.07,0.53,0.17,0.77,0.3c0.1,0.05,0.2,0.1,0.29,0.16c0.09,0.05,0.18,0.11,0.27,0.17c0.12,0.09,0.23,0.18,0.33,0.27 c0.09,0.08,0.17,0.16,0.25,0.24c0.09,0.09,0.17,0.18,0.24,0.27c0.18,0.22,0.34,0.45,0.47,0.7c0.09,0.18,0.17,0.36,0.24,0.55 c0.05,0.11,0.08,0.22,0.11,0.34c0.04,0.12,0.07,0.24,0.09,0.36s0.04,0.24,0.05,0.36c0.01,0.14,0.02,0.28,0.02,0.42v17.2h17.2 c0.14,0,0.28,0.01,0.42,0.02c1.95,0.22,3.64,1.91,3.86,3.86c0.01,0.14,0.02,0.28,0.02,0.42 C90.37,162.035,90.36,162.185,90.35,162.335z M172,197c-7.732,0-14-6.268-14-14s6.268-14,14-14s14,6.268,14,14S179.732,197,172,197z M172,159c-7.732,0-14-6.268-14-14s6.268-14,14-14s14,6.268,14,14S179.732,159,172,159z M210,206c-7.732,0-14-6.268-14-14 s6.268-14,14-14s14,6.268,14,14S217.732,206,210,206z M210,167c-7.732,0-14-6.268-14-14s6.268-14,14-14s14,6.268,14,14 S217.732,167,210,167z"></path> </g></svg>