<?xml version="1.0" encoding="utf-8"?><!-- Uploaded to: SVG Repo, www.svgrepo.com, Generator: SVG Repo Mixer Tools -->
<svg width="800px" height="800px" viewBox="0 0 24 24" fill="none" xmlns="http://www.w3.org/2000/svg">
<path fill-rule="evenodd" clip-rule="evenodd" d="M1 8.5C1 5.21475 3.31333 2 7 2C8.70883 2 9.92877 2.48125 10.8649 3.2079C11.3091 3.55266 11.6802 3.94929 11.9974 4.33639C12.311 3.95011 12.6785 3.55357 13.1186 3.20977C14.0531 2.47979 15.275 2 17 2C20.7289 2 23 5.22013 23 8.5C23 11.8412 21.3259 14.6994 19.2285 16.9297C17.1279 19.1634 14.523 20.8565 12.4472 21.8944C12.1657 22.0352 11.8343 22.0352 11.5528 21.8944C9.47698 20.8565 6.8721 19.1634 4.77151 16.9297C2.67415 14.6994 1 11.8412 1 8.5ZM7 4C4.68667 4 3 6.02986 3 8.5C3 11.1445 4.32585 13.5363 6.22849 15.5596C7.9833 17.4256 10.1612 18.9027 12 19.8754C13.8388 18.9027 16.0167 17.4256 17.7715 15.5596C19.6741 13.5363 21 11.1445 21 8.5C21 6.02448 19.3463 4 17 4C15.6874 4 14.907 4.35067 14.3497 4.78592C13.8333 5.18934 13.4736 5.68102 13.045 6.26703C12.9669 6.37374 12.8866 6.48357 12.8026 6.59656C12.6139 6.85039 12.3163 7 12 7C11.6837 7 11.3861 6.85039 11.1974 6.59656C11.1256 6.49997 11.0562 6.4055 10.9884 6.31318C10.5465 5.71179 10.1717 5.20159 9.63856 4.78779C9.07355 4.34922 8.29117 4 7 4Z" fill="#000000"/>
</svg>