<svg fill="#fff" viewBox="0 0 24 24" xmlns="http://www.w3.org/2000/svg" id="home" class="icon glyph" stroke="#fff"><g id="SVGRepo_bgCarrier" stroke-width="0"></g><g id="SVGRepo_tracerCarrier" stroke-linecap="round" stroke-linejoin="round"></g><g id="SVGRepo_iconCarrier"><path d="M21.71,12.71a1,1,0,0,1-1.42,0L20,12.42V20.3A1.77,1.77,0,0,1,18.17,22H16a1,1,0,0,1-1-1V15.1a1,1,0,0,0-1-1H10a1,1,0,0,0-1,1V21a1,1,0,0,1-1,1H5.83A1.77,1.77,0,0,1,4,20.3V12.42l-.29.29a1,1,0,0,1-1.42,0,1,1,0,0,1,0-1.42l9-9a1,1,0,0,1,1.42,0l9,9A1,1,0,0,1,21.71,12.71Z"></path></g></svg>