<?xml version="1.0" standalone="no"?>
<!DOCTYPE svg PUBLIC "-//W3C//DTD SVG 20010904//EN"
 "http://www.w3.org/TR/2001/REC-SVG-20010904/DTD/svg10.dtd">
<svg version="1.0" xmlns="http://www.w3.org/2000/svg"
 width="281.000000pt" height="281.000000pt" viewBox="0 0 281.000000 281.000000"
 preserveAspectRatio="xMidYMid meet">

<g transform="translate(0.000000,281.000000) scale(0.100000,-0.100000)"
fill="#fff" stroke="none">
<path d="M1275 2804 c-217 -31 -347 -69 -500 -146 -140 -70 -243 -146 -365
-268 -271 -270 -406 -601 -404 -990 0 -213 33 -375 111 -553 189 -430 575
-736 1038 -823 136 -26 363 -26 500 0 336 63 646 248 849 510 208 267 302 541
300 876 0 209 -29 356 -102 530 -185 438 -563 749 -1022 841 -91 18 -339 33
-405 23z m287 -517 c105 -61 152 -188 116 -309 -15 -50 -78 -122 -132 -151
-58 -30 -174 -31 -231 0 -85 45 -135 122 -143 219 -4 52 -1 70 21 115 30 64
40 76 87 111 53 38 88 48 166 44 55 -2 82 -9 116 -29z m-737 -68 c84 -15 144
-49 203 -114 42 -46 56 -70 72 -128 26 -91 56 -149 98 -192 48 -51 93 -59 243
-46 143 12 204 5 299 -33 138 -56 218 -128 273 -244 30 -63 32 -74 32 -177 0
-103 -2 -114 -32 -178 -64 -136 -185 -227 -331 -249 -60 -10 -85 -8 -157 7
-107 22 -216 15 -291 -19 -62 -29 -116 -92 -149 -176 -45 -114 -107 -169 -217
-191 -142 -29 -293 83 -313 233 -14 103 48 220 144 270 73 38 175 40 245 4 46
-23 50 -24 100 -9 104 30 141 105 134 268 -3 74 -9 102 -31 148 -52 104 -114
130 -317 131 -137 1 -148 3 -207 30 -107 49 -183 148 -202 262 -30 190 93 366
282 403 59 12 57 12 122 0z m1406 -1234 c144 -49 213 -223 143 -363 -82 -164
-308 -191 -428 -50 -36 42 -66 118 -66 168 0 52 31 131 68 172 72 79 181 108
283 73z m-749 -191 c63 -32 97 -113 78 -184 -47 -174 -300 -151 -318 28 -12
131 120 217 240 156z"/>
</g>
</svg>